<svg t="1650810974923" class="icon" viewBox="0 0 1024 1024" version="1.1" xmlns="http://www.w3.org/2000/svg" p-id="3060" width="200" height="200"><path d="M118.272 530.432c51.2 407.552 455.168 483.84 729.088 447.488v-120.832c-131.072 4.608-280.064 7.168-420.352-80.384-234.496-137.728-214.528-407.552 0-538.112 161.28-99.84 287.744-89.088 420.352-70.144 1.536-40.448 3.584-80.384 5.12-120.832C548.864 12.288 133.12 96.768 118.272 530.432z" p-id="3061"></path><path d="M389.12 522.24c2.56 74.24 44.032 123.392 61.44 143.36 12.288 14.336 43.52 47.104 116.736 78.336 100.864 43.52 200.192 49.664 277.504 44.544 1.024-29.696 1.536-59.392 2.56-88.576-30.208 1.024-73.728 0.512-125.44-8.704-58.88-10.24-98.816-16.896-138.24-46.08-11.264-8.192-88.576-65.024-81.92-143.36 7.168-84.992 105.984-129.024 127.488-138.752C670.72 344.576 711.68 340.992 747.52 337.92c40.96-3.584 75.264-1.536 99.84 1.024 1.024-27.648 1.536-55.296 2.56-82.944-26.112-3.584-62.976-7.168-107.52-5.12-36.864 2.048-100.864 5.632-174.592 37.888-47.104 20.48-99.328 43.52-137.728 100.352-11.264 16.384-43.52 65.024-40.96 133.12z" fill="#CC0033" p-id="3062"></path></svg>